<svg width="480" height="600" viewBox="0 0 480 600" fill="none" xmlns="http://www.w3.org/2000/svg">
<g clip-path="url(#clip0_14_129)">
<path d="M375.935 445.029C376.429 437.149 378.49 429.663 381.854 423.516C385.218 417.37 389.736 412.842 394.837 410.503C399.937 408.164 405.391 408.118 410.508 410.375C415.626 412.629 420.177 417.084 423.587 423.175C426.997 429.265 429.111 436.718 429.665 444.589C430.218 452.463 429.184 460.4 426.693 467.402C424.202 474.402 420.368 480.152 415.673 483.922C410.978 487.69 405.635 489.314 400.32 488.581C396.79 488.095 393.359 486.583 390.223 484.133C387.086 481.68 384.307 478.337 382.043 474.293C379.778 470.248 378.074 465.583 377.026 460.562C375.978 455.541 375.607 450.263 375.935 445.029Z" fill="#DF2334"/>
<path d="M364.658 409.632L366.42 406.825C375.658 392.019 385.565 378.276 399.927 377.211C418.289 375.832 434.071 382.219 450.523 365.114C473.225 341.499 478.79 292.164 474.791 253.985C470.339 214 457.075 177.329 437.074 149.704C431.179 141.51 424.655 134.371 417.635 128.436C361.703 81.5458 296.207 116.338 260.954 190.303C254.169 204.628 248.326 219.884 243.506 235.863C243.082 237.291 242.674 238.693 242.266 240.12C235.314 264.316 231.315 290.931 232.8 317.135C234.494 344.939 241.899 371.303 254.017 392.672C271.97 424.417 305.037 450.596 333.501 440.918C347.193 436.343 355.697 423.981 364.658 409.632Z" fill="#DF2334"/>
<path d="M345.121 560.297H94.2354V201.602H345.121V560.297Z" fill="white"/>
<path d="M94.2186 561.796H345.073C345.343 561.796 345.601 561.64 345.795 561.358C345.986 561.078 346.097 560.697 346.101 560.297V201.602C346.097 201.202 345.986 200.821 345.795 200.54C345.601 200.259 345.343 200.102 345.073 200.102H94.2186C94.0857 200.102 93.954 200.141 93.8312 200.216C93.7085 200.292 93.5969 200.402 93.5029 200.541C93.409 200.681 93.3346 200.846 93.2837 201.028C93.2329 201.21 93.2065 201.405 93.2065 201.602V560.297C93.2065 560.695 93.3131 561.076 93.5029 561.358C93.6927 561.638 93.9502 561.796 94.2186 561.796ZM344.093 558.747H95.2466V203.078H344.093V558.747Z" fill="black"/>
<path d="M94.2183 237.775H345.072C345.217 237.802 345.364 237.783 345.503 237.718C345.643 237.655 345.772 237.547 345.881 237.406C345.991 237.263 346.079 237.086 346.138 236.888C346.199 236.693 346.231 236.478 346.231 236.261C346.231 236.046 346.199 235.832 346.138 235.634C346.079 235.438 345.991 235.261 345.881 235.118C345.772 234.975 345.643 234.867 345.503 234.804C345.364 234.741 345.217 234.722 345.072 234.749H94.2183C93.9699 234.796 93.7414 234.975 93.576 235.255C93.4104 235.533 93.3194 235.891 93.3194 236.261C93.3194 236.634 93.4104 236.992 93.576 237.27C93.7414 237.547 93.9699 237.726 94.2183 237.775Z" fill="black"/>
<path d="M328.131 217.741C328.128 218.924 328.361 220.082 328.803 221.067C329.243 222.053 329.872 222.823 330.609 223.278C331.345 223.735 332.156 223.857 332.938 223.629C333.722 223.402 334.442 222.834 335.007 221.998C335.573 221.164 335.957 220.099 336.115 218.939C336.271 217.779 336.193 216.577 335.888 215.482C335.584 214.389 335.067 213.455 334.404 212.798C333.741 212.139 332.961 211.787 332.163 211.787C331.096 211.787 330.072 212.415 329.317 213.531C328.561 214.646 328.135 216.16 328.131 217.741Z" fill="black"/>
<path d="M313.245 217.741C313.243 218.924 313.477 220.082 313.917 221.067C314.359 222.053 314.987 222.823 315.724 223.28C316.459 223.735 317.271 223.857 318.054 223.629C318.836 223.402 319.556 222.834 320.122 221.998C320.687 221.164 321.073 220.099 321.231 218.939C321.387 217.779 321.307 216.577 321.004 215.484C320.698 214.389 320.181 213.455 319.518 212.798C318.855 212.139 318.075 211.787 317.277 211.787C316.749 211.785 316.225 211.937 315.736 212.234C315.246 212.533 314.802 212.971 314.428 213.522C314.054 214.076 313.757 214.733 313.554 215.457C313.351 216.181 313.245 216.956 313.245 217.741Z" fill="#FFBE4A"/>
<path d="M332.015 314.232C341.628 328.747 353.69 350.935 363.841 343.895C370.696 339.055 374.482 295.093 374.826 278.179C375.136 262.575 373.715 238.547 377.486 215.926C381.256 193.303 406.586 189.141 406.586 189.141C406.586 189.141 414.061 154.397 425.568 156.26C437.074 158.123 430.04 183.697 430.04 183.697C430.04 183.697 447.209 147.598 455.615 149.679C460.804 150.961 461.882 157.833 461.947 162.914C465.635 160.325 470.319 158.656 473.159 163.761C478.382 173.124 468.263 184.98 468.263 184.98C468.263 184.98 474.791 180.335 478.252 190.133C481.711 199.933 472.85 211.909 472.85 211.909C473.943 213.844 472.85 223.547 466.762 225.749C459.728 228.168 434.12 237.194 434.12 237.194C434.12 237.194 434.887 324.659 434.364 357.613C432.389 484.008 354.392 503.632 295.211 424.343L332.015 314.232Z" fill="white"/>
<path d="M368.119 472.903C377.313 473.023 386.427 470.356 394.901 465.063C420.101 448.998 434.447 410.819 435.279 357.516C435.752 327.055 435.116 248.977 435.035 238.282C439.424 236.758 460.691 229.354 466.942 227.103C468.514 226.552 469.964 225.408 471.153 223.785C472.343 222.162 473.23 220.114 473.732 217.838C474.199 216.015 474.295 214.029 474.009 212.126C475.984 209.199 482.349 198.747 479.085 189.456C478.444 187.302 477.388 185.477 476.049 184.212C474.71 182.946 473.148 182.296 471.56 182.343C473.668 179.225 475.091 175.236 475.642 170.898C475.761 169.454 475.679 167.988 475.397 166.593C475.116 165.198 474.643 163.904 474.009 162.793C472.377 159.744 469.112 157.059 462.943 160.664C462.437 153.599 459.956 149.195 455.844 148.179C449.169 146.51 438.298 165.261 432.7 175.979C433.402 170.923 433.696 164.632 431.901 160.18C431.246 158.607 430.346 157.293 429.273 156.349C428.203 155.405 426.993 154.86 425.747 154.76C414.518 152.946 407.208 182.028 405.885 187.762C401.74 188.585 380.147 194.005 376.507 215.562C373.635 232.863 373.748 250.912 373.846 265.404C373.846 270.002 373.846 274.358 373.846 278.133C373.439 298.577 369.195 338.619 363.466 342.516C355.306 348.2 345.302 332.667 336.537 318.973C335.247 316.964 334.008 315.004 332.783 313.189C332.674 313.013 332.535 312.878 332.382 312.802C332.227 312.724 332.062 312.709 331.902 312.756C331.74 312.789 331.588 312.882 331.456 313.025C331.325 313.168 331.22 313.358 331.15 313.577L294.217 423.545C294.122 423.84 294.094 424.173 294.133 424.495C294.175 424.817 294.284 425.112 294.444 425.335C310.407 446.724 328.327 461.627 346.265 468.596C353.396 471.398 360.74 472.844 368.119 472.903ZM471.708 185.391C472.895 185.387 474.058 185.901 475.051 186.869C476.044 187.837 476.822 189.216 477.289 190.835C480.31 199.497 472.181 210.554 472.1 210.65C471.904 210.912 471.785 211.274 471.766 211.663C471.748 212.05 471.833 212.434 472.002 212.733C472.263 214.272 472.154 215.897 471.691 217.328C471.272 219.027 470.572 220.541 469.657 221.737C468.743 222.933 467.641 223.77 466.452 224.177C459.516 226.596 434.022 235.524 433.811 235.621C433.586 235.697 433.386 235.886 433.244 236.154C433.101 236.423 433.024 236.756 433.027 237.097C433.027 237.968 433.794 324.924 433.288 357.467C432.471 409.486 418.6 446.724 394.117 462.305C365.849 480.307 327.56 465.234 296.387 423.859L332.293 316.819L335.019 321.055C344.274 335.57 354.751 351.878 364.299 345.248C372.182 339.781 375.593 291.415 375.854 278.204C375.854 274.381 375.854 270.002 375.854 265.381C375.854 251.057 375.658 233.202 378.481 216.288C382.023 194.973 406.456 190.666 406.701 190.642C406.895 190.605 407.077 190.488 407.227 190.304C407.378 190.12 407.489 189.876 407.55 189.601C407.631 189.262 414.927 156.043 425.503 157.785C426.435 157.826 427.345 158.207 428.154 158.895C428.962 159.583 429.644 160.556 430.138 161.728C433.011 168.987 429.191 182.996 429.143 183.117C429.06 183.458 429.062 183.832 429.148 184.171C429.235 184.51 429.4 184.793 429.614 184.968C429.829 185.142 430.079 185.198 430.317 185.125C430.557 185.052 430.772 184.855 430.922 184.569C435.59 174.745 449.12 149.582 455.484 151.155C459.042 152.026 460.887 155.994 460.985 162.938C460.987 163.192 461.034 163.441 461.12 163.661C461.206 163.881 461.327 164.065 461.475 164.196C461.621 164.322 461.787 164.388 461.956 164.388C462.125 164.388 462.291 164.322 462.437 164.196C467.088 160.954 470.451 161.099 472.426 164.656C472.897 165.445 473.249 166.372 473.459 167.377C473.671 168.382 473.736 169.442 473.649 170.487C473.161 177.165 467.661 183.673 467.611 183.722C467.426 183.958 467.304 184.284 467.267 184.641C467.23 184.999 467.279 185.364 467.406 185.672C467.534 185.98 467.732 186.211 467.963 186.324C468.195 186.436 468.446 186.423 468.672 186.286C469.635 185.694 470.666 185.389 471.708 185.391Z" fill="black"/>
<path d="M47.1325 190.134C45.9736 183.045 40.898 160.47 47.3774 157.107C53.2857 154.035 56.501 165.987 57.1701 168.939C58.1656 173.633 60.0098 181.399 61.1523 187.4C54.2649 150.937 49.5479 126.912 58.1165 123.403C64.0409 120.984 67.9094 129.21 69.4108 135.84C67.893 125.799 65.3956 112.757 73.5724 110.725C83.1202 108.305 86.6296 136.662 87.3966 144.816C85.9441 126.936 86.7599 112.806 93.2883 112.467C100.094 112.152 102.363 124.274 103.358 130.904C104.354 137.533 109.74 190.134 109.74 190.134C109.74 190.134 123.662 148.76 134.222 159.575C144.781 170.391 129.798 197.078 125.49 208.909C121.328 220.354 115.599 237.749 114.163 248.202C113.167 255.461 114.538 341.619 125.996 349.581C136.147 356.621 148.209 334.482 157.838 319.916L204.484 416.286C145.352 495.575 57.594 489.573 55.6029 363.057C54.4931 291.754 56.3049 264.461 56.1254 259.162C56.06 259.284 48.2913 197.247 47.1325 190.134Z" fill="white"/>
<path d="M121.997 470.048C149.171 470.048 179.773 451.371 205.103 417.4C205.285 417.15 205.399 416.811 205.423 416.444C205.447 416.078 205.38 415.712 205.234 415.415L158.587 319.046C158.505 318.861 158.393 318.71 158.264 318.6C158.133 318.491 157.987 318.427 157.838 318.417C157.69 318.4 157.541 318.434 157.402 318.512C157.264 318.592 157.139 318.716 157.038 318.876C155.83 320.691 154.573 322.651 153.3 324.659C144.52 338.354 134.58 353.886 126.354 348.2C121.947 345.152 118.406 327.491 116.35 298.48C114.717 274.552 114.717 251.735 115.093 248.518C116.725 236.541 124.102 215.707 126.322 209.611C127.105 207.458 128.247 204.772 129.586 201.772C135.396 188.319 144.143 167.899 134.759 158.221C133.838 157.252 132.783 156.6 131.671 156.311C130.559 156.022 129.417 156.104 128.329 156.551C120.805 159.406 113.346 177.141 110.278 185.295C108.939 172.35 105.169 135.961 104.337 130.444C103.586 125.605 101.285 110.411 93.2387 110.846C92.35 110.859 91.4741 111.158 90.671 111.722C89.8679 112.286 89.157 113.101 88.5874 114.113C86.9554 116.871 86.0737 121.371 85.8125 127.686C84.36 121.057 82.2222 114.548 79.1702 111.233C77.4794 109.433 75.3824 108.679 73.3231 109.131C71.264 109.582 69.404 111.204 68.1371 113.653C66.603 117.016 66.5049 121.637 67.0597 126.428C66.0074 124.378 64.5654 122.842 62.9189 122.019C61.2724 121.195 59.4971 121.121 57.8221 121.807C56.9712 122.137 56.1739 122.719 55.4783 123.517C54.7829 124.315 54.2034 125.314 53.7746 126.452C51.457 132.549 52.469 144.018 55.0313 159.648C54.2335 158.119 53.2267 156.858 52.0772 155.946C51.3058 155.371 50.4628 155.038 49.6006 154.967C48.7386 154.896 47.8759 155.089 47.0664 155.535C40.538 158.97 43.8024 177.31 45.6141 187.182L46.1692 190.352C47.279 197.199 54.7213 256.43 55.0803 259.307C55.0803 260.566 55.0801 263.253 54.917 267.244C54.5253 280.842 53.7093 309.175 54.558 363.057C55.3088 411.278 68.8877 446.24 92.8144 461.482C102.048 467.251 111.977 470.164 121.997 470.048ZM203.08 415.996C168.805 461.507 124.869 478.71 93.6141 458.773C70.4708 444.038 57.3163 410.044 56.5981 363.082C55.7494 309.272 56.598 281.011 56.9571 267.438C57.0876 263.107 57.1531 260.493 57.1041 259.114C57.1112 259.051 57.1112 258.985 57.1041 258.92C56.7941 256.381 49.319 196.763 48.1602 189.698C48.0297 188.827 47.8174 187.739 47.5889 186.456C46.2016 178.835 42.9539 160.954 47.7522 158.462C48.3043 158.149 48.8944 158.011 49.4847 158.057C50.0751 158.102 50.6524 158.331 51.1794 158.729C53.7745 160.64 55.5536 166.277 56.2064 169.326C56.5328 170.85 56.9408 172.738 57.3978 174.77C58.3444 178.98 59.4053 183.746 60.1559 187.739C60.2438 188.102 60.4212 188.402 60.6524 188.578C60.8836 188.755 61.1514 188.795 61.4019 188.691C61.6525 188.587 61.8667 188.346 62.0021 188.016C62.1373 187.687 62.1833 187.294 62.1307 186.916L61.7717 185.053C56.598 157.664 52.518 136.058 55.5701 128.001C55.8645 127.21 56.2657 126.519 56.7486 125.969C57.2318 125.42 57.7862 125.024 58.3772 124.807C65.0035 122.073 68.1697 134.799 68.4471 136.251C68.5207 136.636 68.6944 136.962 68.9301 137.157C69.1657 137.352 69.4442 137.401 69.704 137.292C69.9637 137.182 70.1835 136.925 70.3152 136.575C70.4468 136.226 70.4792 135.814 70.4056 135.429L70.1446 133.759C69.1165 127.105 67.9576 119.557 69.8509 115.395C70.8089 113.622 72.1889 112.461 73.7068 112.15C75.2248 111.84 76.7654 112.403 78.0115 113.726C83.5443 119.726 85.8291 139.155 86.4003 144.961C86.4629 145.321 86.6119 145.635 86.8195 145.843C87.027 146.051 87.2789 146.14 87.5276 146.092C87.7761 146.045 88.0043 145.864 88.1695 145.585C88.3346 145.305 88.4251 144.946 88.4241 144.574C87.2163 129.767 87.8039 120.21 90.1706 116.121C90.5597 115.437 91.0441 114.885 91.5907 114.505C92.1373 114.125 92.733 113.925 93.3367 113.919C99.098 113.653 101.236 123.597 102.379 131.146C103.358 137.63 108.695 189.771 108.744 190.303C108.781 190.617 108.884 190.906 109.038 191.129C109.192 191.351 109.389 191.497 109.601 191.545C109.814 191.593 110.031 191.541 110.223 191.397C110.415 191.252 110.571 191.022 110.669 190.739C110.767 190.473 120.152 162.842 128.868 159.527C129.673 159.184 130.521 159.117 131.346 159.331C132.172 159.545 132.954 160.034 133.633 160.761C141.402 168.745 133.633 186.843 127.905 200.078C126.566 203.175 125.407 205.861 124.64 208.111C121.752 216.046 114.848 235.79 113.216 247.84C112.285 254.541 113.216 342.2 125.603 350.863C135.168 357.493 145.646 341.185 154.884 326.667L157.755 322.192L203.08 415.996Z" fill="black"/>
<path d="M99.7343 71.1657C99.867 63.7207 100.838 56.3607 102.607 49.3902C108.629 25.4611 123.629 9.85514 139.966 4.0241C152.911 -0.498918 166.455 0.490734 179.039 6.87912C187.199 11.0165 195.197 16.9443 201.219 26.2352C207.748 36.5182 212.22 49.7289 215.483 62.9152C218.832 77.3683 221.406 92.1891 223.187 107.241C225.048 121.226 227.039 136.928 234.889 146.51C247.194 161.535 265.343 144.09 277.226 179.173C280.49 188.706 279.674 202.231 280.392 207.893C283.493 232.815 274.5 254.057 257.689 258.703C251.945 260.276 240.879 256.912 240.618 257.008C223.383 264.074 206.947 259.187 194.674 238.96C186.628 225.701 182.238 208.74 178.353 192.166C176.362 183.674 174.615 174.14 170.012 167.801C165.117 161.051 158.295 157.107 152.059 153.768C140.635 147.55 129.21 141.138 119.418 129.96C106.785 115.612 99.3263 93.8609 99.7343 71.1657Z" fill="black"/>
<path d="M315.269 561.796C315.356 561.819 315.444 561.819 315.53 561.796C315.792 561.693 316.015 561.444 316.152 561.099C316.289 560.756 316.33 560.345 316.266 559.958L309.917 522.914C309.861 522.585 309.734 522.295 309.552 522.089C309.371 521.882 309.15 521.773 308.921 521.777H184.637C184.483 521.775 184.331 521.823 184.194 521.92C184.054 522.015 183.932 522.158 183.837 522.335C183.707 522.6 180.278 529.061 177.732 560.152C177.699 560.547 177.775 560.95 177.939 561.265C178.104 561.583 178.347 561.79 178.614 561.844C178.884 561.886 179.154 561.771 179.367 561.522C179.58 561.274 179.719 560.912 179.756 560.514C181.812 535.472 184.408 526.908 185.192 524.802H308.137L314.291 560.708C314.35 561.023 314.48 561.299 314.657 561.497C314.833 561.693 315.049 561.798 315.269 561.796Z" fill="black"/>
<path d="M185.127 515.825C185.338 515.821 185.544 515.72 185.715 515.535L208.809 491.002C208.916 490.886 209.009 490.739 209.08 490.571C209.151 490.402 209.198 490.215 209.219 490.019C209.24 489.823 209.235 489.623 209.203 489.432C209.172 489.238 209.115 489.057 209.037 488.897C208.96 488.733 208.862 488.594 208.749 488.486C208.635 488.381 208.509 488.31 208.375 488.278C208.243 488.246 208.107 488.255 207.976 488.303C207.846 488.35 207.724 488.438 207.617 488.558L184.523 513.187C184.306 513.43 184.16 513.787 184.117 514.183C184.074 514.581 184.138 514.987 184.294 515.318C184.397 515.491 184.526 515.627 184.671 515.716C184.814 515.804 184.97 515.842 185.127 515.825Z" fill="black"/>
<path d="M141.891 330.417C167.041 289.6 207.698 281.518 231.657 279.608H266.143C279.493 279.027 322.712 283.768 347.879 324.585L317.098 371.84C319.689 380.166 320.218 389.581 318.595 398.429C316.972 407.278 313.298 414.996 308.218 420.229L308.889 523.181L183.576 524.053C183.576 524.053 184.016 451.223 184.881 388.752L141.891 330.417Z" fill="black"/>
<path d="M7.96234 547.474L100.894 597.242L135.054 436.295L51.0828 391.293L7.96234 547.474Z" fill="white"/>
<path d="M100.894 598.766C101.048 598.771 101.201 598.712 101.334 598.598C101.46 598.512 101.571 598.387 101.661 598.234C101.751 598.08 101.818 597.897 101.857 597.701L136.033 436.731C136.112 436.362 136.091 435.962 135.976 435.615C135.86 435.267 135.659 435 135.413 434.867L51.425 389.888C51.1779 389.754 50.9051 389.766 50.6643 389.924C50.4236 390.082 50.234 390.375 50.1356 390.737L7.01555 546.893C6.96303 547.08 6.93587 547.282 6.93587 547.484C6.93587 547.688 6.96303 547.891 7.01555 548.078C7.07095 548.267 7.15126 548.436 7.25226 548.579C7.35323 548.72 7.47254 548.83 7.6029 548.901L100.518 598.67C100.638 598.739 100.765 598.773 100.894 598.766ZM133.797 437.215L100.257 595.282L9.30035 546.651L51.6534 393.301L133.797 437.215Z" fill="black"/>
<path d="M155.144 426.739C155.405 426.739 155.655 426.592 155.844 426.324C156.031 426.059 156.143 425.697 156.156 425.312C157.657 381.76 153.17 355.145 142.823 345.806C133.862 337.75 124.102 346.049 123.694 346.411C123.578 346.507 123.475 346.64 123.394 346.796C123.312 346.954 123.253 347.135 123.22 347.326C123.186 347.518 123.179 347.718 123.199 347.914C123.218 348.11 123.265 348.299 123.335 348.467C123.401 348.64 123.489 348.79 123.595 348.912C123.7 349.034 123.821 349.122 123.95 349.175C124.079 349.225 124.214 349.238 124.346 349.213C124.479 349.187 124.606 349.122 124.722 349.023C124.82 349.023 133.878 341.257 141.777 348.394C148.404 354.396 155.928 372.59 154.116 425.141C154.103 425.543 154.196 425.935 154.377 426.234C154.557 426.533 154.81 426.714 155.08 426.739H155.144Z" fill="black"/>
<path d="M84.1322 377.96C84.2507 377.996 84.3726 377.996 84.4912 377.96C110.442 363.444 124.021 348.926 124.853 334.627C125.49 323.91 118.651 317.691 118.325 317.545C118.21 317.444 118.083 317.377 117.95 317.347C117.818 317.318 117.684 317.328 117.554 317.377C117.424 317.425 117.303 317.512 117.195 317.63C117.088 317.747 116.998 317.895 116.929 318.065C116.861 318.236 116.815 318.423 116.796 318.619C116.776 318.817 116.783 319.015 116.816 319.208C116.848 319.4 116.906 319.581 116.985 319.739C117.065 319.899 117.165 320.034 117.28 320.135C117.378 320.135 123.319 325.602 122.797 334.385C122.274 343.168 115.044 357.661 83.7401 375.131C83.6137 375.2 83.4984 375.305 83.4001 375.442C83.302 375.579 83.2231 375.743 83.1682 375.926C83.1136 376.11 83.0842 376.305 83.0815 376.505C83.0788 376.705 83.1029 376.903 83.1528 377.091C83.236 377.366 83.3744 377.598 83.5495 377.754C83.7248 377.91 83.9284 377.983 84.1322 377.96Z" fill="black"/>
<path d="M117.851 418.124C118.048 418.126 118.24 418.042 118.406 417.884C118.571 417.724 118.702 417.497 118.781 417.23C131.267 375.299 134.465 348.177 128.329 336.611C127.277 334.67 125.903 333.164 124.34 332.249C122.778 331.333 121.081 331.034 119.417 331.385C119.151 331.457 118.915 331.68 118.76 332.009C118.606 332.339 118.546 332.745 118.593 333.139C118.641 333.535 118.792 333.884 119.014 334.114C119.236 334.343 119.51 334.432 119.776 334.362C121.082 334.099 122.411 334.343 123.633 335.074C124.855 335.804 125.927 336.992 126.746 338.522C130.597 345.781 132.034 365.137 116.953 415.947C116.899 416.129 116.87 416.324 116.867 416.522C116.864 416.72 116.887 416.916 116.935 417.101C116.984 417.284 117.057 417.453 117.149 417.596C117.242 417.739 117.353 417.853 117.475 417.931C117.589 418.036 117.718 418.103 117.851 418.124Z" fill="black"/>
<path d="M65.1354 560.465L162.768 583.015L174.078 429.594L85.8467 409.221L65.1354 560.465Z" fill="#FFBE4A"/>
<path d="M119.647 527.293C123.675 527.288 127.618 525.571 131.008 522.343C134.398 519.118 137.094 514.52 138.775 509.093C140.456 503.665 141.052 497.638 140.493 491.722C139.934 485.808 138.243 480.257 135.62 475.722C132.998 471.189 129.553 467.865 125.696 466.145C121.838 464.425 117.729 464.381 113.855 466.017C109.98 467.653 106.503 470.901 103.836 475.375C101.169 479.85 99.4229 485.366 98.8052 491.267C97.9466 499.446 99.314 507.794 102.607 514.478C105.901 521.162 110.85 525.632 116.367 526.907C117.451 527.168 118.548 527.297 119.647 527.293ZM119.565 467.869C120.56 467.876 121.552 467.989 122.536 468.208C126.251 469.069 129.71 471.543 132.477 475.318C135.243 479.093 137.193 484 138.079 489.417C138.965 494.834 138.748 500.518 137.455 505.752C136.162 510.987 133.851 515.535 130.814 518.823C127.778 522.109 124.152 523.987 120.395 524.221C116.638 524.455 112.919 523.032 109.708 520.13C106.497 517.232 103.938 512.985 102.355 507.928C100.771 502.874 100.235 497.234 100.813 491.726C101.506 485.088 103.776 479.036 107.215 474.661C110.654 470.286 115.034 467.878 119.565 467.869Z" fill="white"/>
<path d="M1.0257 426.158L59.3733 490.082L101.939 395.962L49.2054 338.208L1.0257 426.158Z" fill="white"/>
<path d="M259.24 159.938C259.471 159.935 259.696 159.817 259.877 159.602C260.058 159.387 260.184 159.087 260.235 158.752C260.264 158.558 260.267 158.358 260.242 158.163C260.218 157.967 260.169 157.781 260.096 157.614C260.024 157.448 259.929 157.305 259.818 157.193C259.708 157.081 259.583 157.002 259.453 156.962C248.224 153.333 241.498 147.792 236.766 138.477C231.478 127.903 228.605 111.378 227.479 86.433C226.516 63.0361 215.81 36.7117 200.893 20.9364C193.649 13.0973 185.281 7.84231 176.444 5.58036C167.607 3.31842 158.535 4.11065 149.938 7.89533C149.807 7.9457 149.685 8.03419 149.578 8.15568C149.472 8.27718 149.381 8.42914 149.314 8.60269C149.247 8.77625 149.205 8.96794 149.189 9.16638C149.172 9.36482 149.183 9.56602 149.22 9.75825C149.296 10.141 149.47 10.4644 149.705 10.6589C149.94 10.8535 150.217 10.9037 150.477 10.7988C158.782 7.14438 167.544 6.37838 176.08 8.56046C184.618 10.7425 192.7 15.8138 199.701 23.3801C214.161 38.6715 224.509 64.0765 225.455 86.6264C227.692 140.122 238.512 153.284 259.011 159.914L259.24 159.938Z" fill="black"/>
<path d="M67.5657 471.983L59.3724 490.082L1.02484 426.158L10.2951 409.246L67.5657 471.983Z" fill="#DF2334"/>
<path d="M59.3732 491.606H59.5528C59.6884 491.571 59.8179 491.495 59.933 491.381C60.048 491.27 60.1461 491.124 60.2218 490.952L102.787 396.834C102.932 396.512 102.989 396.12 102.947 395.739C102.904 395.356 102.766 395.013 102.559 394.777L49.8092 336.998C49.5993 336.771 49.3376 336.669 49.0791 336.72C48.8208 336.768 48.5854 336.964 48.4218 337.265L0.225715 425.238C0.135809 425.394 0.0703464 425.575 0.0336602 425.773C-0.00303672 425.968 -0.00984088 426.175 0.0137353 426.375C0.0504864 426.783 0.190503 427.156 0.405418 427.417L58.7695 491.339C58.947 491.52 59.158 491.613 59.3732 491.606ZM100.551 396.324L59.1285 487.928L2.47823 425.893L49.3849 340.265L100.551 396.324Z" fill="black"/>
<path d="M231.691 279.703H231.92L234.335 256.114C248.028 249.484 241.059 221.49 241.059 221.49C255.912 221.684 253.497 202.594 253.007 192.021C252.993 191.544 253.065 191.07 253.217 190.649C253.369 190.229 253.595 189.876 253.87 189.628C254.146 189.381 254.461 189.248 254.782 189.243C255.104 189.238 255.421 189.362 255.699 189.601C264.922 197.731 278.32 190.762 279.283 200.223C282.711 233.636 289.582 266.541 265.345 269.495V279.848H266.177C276.974 279.703 287.743 281.499 298.249 285.196C296.731 288.341 277.277 327.32 244.39 326.836C218.39 326.474 203.114 299.497 197.287 286.552C208.6 282.8 220.111 280.509 231.691 279.703Z" fill="white"/>
<path d="M183.609 525.625L308.938 524.754C309.208 524.747 309.467 524.581 309.655 524.293C309.839 524.004 309.942 523.625 309.949 523.23L309.28 421.03C312.767 417.265 315.604 412.335 317.561 406.638C319.518 400.939 320.539 394.638 320.542 388.244C320.552 382.762 319.802 377.335 318.338 372.299L348.646 325.796C348.824 325.514 348.923 325.141 348.923 324.756C348.923 324.369 348.824 323.998 348.646 323.716C319.529 276.461 268.297 278.131 266.127 278.227C265.982 278.202 265.836 278.219 265.696 278.284C265.556 278.347 265.427 278.455 265.318 278.598C265.209 278.739 265.12 278.916 265.061 279.114C265.001 279.31 264.97 279.524 264.97 279.741C264.97 279.958 265.001 280.171 265.061 280.369C265.12 280.564 265.209 280.741 265.318 280.884C265.427 281.027 265.556 281.135 265.696 281.198C265.836 281.261 265.982 281.28 266.127 281.253C268.232 281.253 317.817 279.56 346.427 324.804L316.314 371.042C316.174 371.259 316.08 371.535 316.046 371.832C316.01 372.129 316.036 372.436 316.118 372.712C317.645 377.611 318.43 382.945 318.42 388.341C318.416 394.381 317.432 400.333 315.547 405.691C313.664 411.049 310.938 415.653 307.599 419.118C307.464 419.259 307.353 419.449 307.277 419.667C307.2 419.886 307.159 420.128 307.159 420.375L307.811 521.825L184.554 522.697C184.554 511.857 185.077 445.707 185.844 388.922C185.847 388.71 185.818 388.497 185.761 388.301C185.706 388.105 185.622 387.931 185.517 387.785L143.246 330.442C161.95 300.851 191.688 284.326 231.657 281.301C231.925 281.282 232.178 281.105 232.358 280.811C232.539 280.516 232.634 280.126 232.621 279.729C232.607 279.331 232.489 278.956 232.289 278.689C232.09 278.421 231.827 278.282 231.559 278.301C190.529 281.398 160.073 298.625 141.059 329.499C140.963 329.636 140.886 329.802 140.833 329.983C140.78 330.166 140.753 330.364 140.753 330.562C140.753 330.762 140.78 330.958 140.833 331.141C140.886 331.324 140.963 331.489 141.059 331.627L183.885 389.381C183.038 451.006 182.596 523.301 182.58 524.027C182.58 524.227 182.609 524.423 182.661 524.606C182.715 524.79 182.792 524.956 182.89 525.093C182.978 525.251 183.087 525.381 183.211 525.472C183.334 525.564 183.471 525.617 183.609 525.625Z" fill="black"/>
<path d="M317.325 374.259C317.462 374.257 317.595 374.208 317.717 374.114C317.841 374.038 317.953 373.924 318.048 373.783C318.142 373.642 318.217 373.474 318.267 373.288C318.317 373.105 318.342 372.907 318.339 372.707C318.338 372.509 318.31 372.311 318.256 372.13C315.403 362.459 310.14 354.798 303.567 350.741C303.444 350.667 303.312 350.629 303.178 350.629C303.045 350.631 302.913 350.669 302.791 350.747C302.668 350.823 302.556 350.935 302.462 351.076C302.369 351.215 302.295 351.381 302.245 351.564C302.194 351.747 302.168 351.943 302.17 352.139C302.17 352.337 302.197 352.533 302.248 352.714C302.299 352.897 302.376 353.061 302.47 353.2C302.565 353.339 302.677 353.448 302.799 353.524C308.879 357.293 313.741 364.389 316.378 373.339C316.456 373.615 316.588 373.85 316.757 374.015C316.926 374.177 317.124 374.263 317.325 374.259Z" fill="white"/>
<path d="M303.225 332.619H303.242C303.8 332.619 304.253 333.29 304.253 334.12V352.168C304.253 352.998 303.8 353.669 303.242 353.669H303.225C302.667 353.669 302.214 352.998 302.214 352.168V334.12C302.214 333.29 302.667 332.619 303.225 332.619Z" fill="white"/>
<path d="M184.573 390.47C184.841 390.47 185.098 390.312 185.287 390.032C185.477 389.75 185.584 389.369 185.584 388.971V333.998C185.602 333.783 185.59 333.566 185.547 333.358C185.504 333.152 185.432 332.962 185.335 332.798C185.239 332.636 185.121 332.507 184.987 332.417C184.854 332.329 184.711 332.282 184.564 332.282C184.418 332.282 184.275 332.329 184.141 332.417C184.008 332.507 183.89 332.636 183.793 332.798C183.697 332.962 183.624 333.152 183.582 333.358C183.539 333.566 183.526 333.783 183.545 333.998V388.971C183.549 389.371 183.658 389.752 183.851 390.032C184.043 390.314 184.302 390.47 184.573 390.47Z" fill="white"/>
<path d="M265.343 286.406C265.613 286.4 265.87 286.236 266.059 285.952C266.249 285.665 266.355 285.282 266.355 284.882V270.825C272.737 269.808 277.241 266.638 280.114 261.147C285.956 249.992 283.802 231.12 281.534 211.135C281.256 208.716 280.962 206.296 280.702 203.731C280.441 201.167 280.016 198.288 279.543 195.578L278.531 189.795C278.498 189.603 278.438 189.422 278.359 189.263C278.278 189.105 278.177 188.971 278.062 188.87C277.947 188.769 277.819 188.702 277.687 188.674C277.555 188.646 277.42 188.657 277.289 188.706C277.16 188.755 277.038 188.842 276.932 188.961C276.825 189.08 276.734 189.229 276.666 189.4C276.598 189.571 276.554 189.76 276.534 189.956C276.516 190.153 276.523 190.353 276.555 190.545L277.568 196.328C278.025 198.941 278.4 201.602 278.677 204.215C278.955 206.828 279.232 209.054 279.511 211.619C281.713 230.975 283.802 249.194 278.498 259.284C275.871 264.316 271.529 267.147 265.261 267.897C265.004 267.928 264.763 268.101 264.587 268.383C264.412 268.667 264.314 269.038 264.315 269.421V284.905C264.32 285.307 264.429 285.688 264.622 285.968C264.814 286.248 265.074 286.406 265.343 286.406Z" fill="black"/>
<path d="M231.689 283.333C231.935 283.337 232.172 283.21 232.358 282.975C232.544 282.739 232.667 282.41 232.702 282.05L235.346 256.307C235.382 256.101 235.387 255.884 235.363 255.674C235.339 255.463 235.285 255.263 235.204 255.084C235.125 254.907 235.02 254.756 234.899 254.642C234.777 254.528 234.639 254.453 234.497 254.423C234.355 254.391 234.209 254.406 234.071 254.463C233.932 254.522 233.803 254.623 233.692 254.76C233.581 254.897 233.492 255.065 233.428 255.257C233.364 255.448 233.328 255.659 233.323 255.871L230.694 281.566C230.673 281.762 230.678 281.962 230.71 282.156C230.741 282.347 230.799 282.528 230.877 282.688C230.957 282.848 231.056 282.983 231.17 283.084C231.285 283.187 231.411 283.255 231.543 283.284L231.689 283.333Z" fill="black"/>
<path d="M233.551 225.411C233.547 228.109 234.085 230.752 235.095 232.998C236.105 235.246 237.54 236.998 239.222 238.036C240.905 239.072 242.755 239.345 244.542 238.821C246.328 238.297 247.97 237 249.259 235.093C250.549 233.185 251.426 230.754 251.783 228.105C252.139 225.457 251.959 222.714 251.262 220.219C250.566 217.722 249.386 215.589 247.872 214.091C246.358 212.589 244.577 211.787 242.756 211.787C240.318 211.787 237.979 213.223 236.252 215.777C234.527 218.331 233.555 221.796 233.551 225.411Z" fill="white"/>
<path d="M244.438 229.354C244.632 229.375 244.827 229.31 244.996 229.166C245.166 229.023 245.304 228.811 245.392 228.552C245.482 228.295 245.517 228.004 245.494 227.716C245.473 227.427 245.395 227.156 245.27 226.935L241.907 219.941C241.75 219.617 241.512 219.398 241.247 219.331C240.981 219.263 240.709 219.352 240.487 219.579C240.267 219.817 240.119 220.173 240.074 220.571C240.027 220.969 240.088 221.377 240.243 221.707L243.621 228.676C243.709 228.88 243.83 229.049 243.972 229.166C244.114 229.284 244.275 229.35 244.438 229.354Z" fill="black"/>
<path d="M235.037 240.798C235.037 242.568 235.39 244.299 236.055 245.773C236.718 247.244 237.661 248.391 238.764 249.069C239.868 249.747 241.082 249.924 242.254 249.579C243.425 249.234 244.5 248.381 245.345 247.128C246.19 245.876 246.765 244.282 246.998 242.545C247.231 240.808 247.112 239.008 246.655 237.373C246.197 235.737 245.423 234.339 244.431 233.354C243.437 232.37 242.269 231.846 241.075 231.846C240.283 231.846 239.497 232.078 238.764 232.528C238.032 232.977 237.366 233.636 236.806 234.467C236.245 235.299 235.799 236.286 235.497 237.373C235.193 238.459 235.037 239.623 235.037 240.798Z" fill="#03E786"/>
<path d="M265.345 270.825C265.593 270.779 265.822 270.598 265.987 270.32C266.153 270.042 266.244 269.684 266.244 269.312C266.244 268.941 266.153 268.583 265.987 268.305C265.822 268.027 265.593 267.846 265.345 267.8C261.319 267.792 257.32 266.838 253.495 264.968C253.37 264.895 253.237 264.859 253.102 264.863C252.967 264.867 252.835 264.912 252.711 264.994C252.588 265.074 252.477 265.192 252.385 265.337C252.293 265.482 252.222 265.653 252.175 265.84C252.08 266.219 252.089 266.638 252.203 267.006C252.315 267.373 252.523 267.659 252.778 267.8C256.828 269.817 261.073 270.84 265.345 270.825Z" fill="black"/>
<path d="M273.995 234.533C274.154 234.531 274.311 234.474 274.454 234.366C274.596 234.259 274.719 234.105 274.814 233.916C274.909 233.724 274.973 233.505 275 233.272C275.029 233.038 275.019 232.798 274.973 232.573L270.828 212.926C270.788 212.737 270.724 212.56 270.638 212.408C270.552 212.257 270.449 212.131 270.329 212.038C270.212 211.947 270.082 211.891 269.949 211.872C269.817 211.855 269.682 211.874 269.556 211.933C269.428 211.992 269.308 212.088 269.206 212.215C269.104 212.341 269.019 212.497 268.956 212.672C268.895 212.846 268.857 213.038 268.844 213.236C268.831 213.434 268.847 213.632 268.885 213.821L273.032 233.467C273.094 233.775 273.222 234.042 273.396 234.234C273.569 234.425 273.778 234.531 273.995 234.533Z" fill="black"/>
<path d="M260.122 221.467C258.986 221.467 258.065 220.101 258.065 218.419C258.065 216.735 258.986 215.368 260.122 215.368C261.258 215.368 262.178 216.735 262.178 218.419C262.178 220.101 261.258 221.467 260.122 221.467Z" fill="black"/>
<path d="M275.054 216.821C275.054 217.429 275.176 218.025 275.405 218.531C275.634 219.036 275.957 219.429 276.338 219.661C276.717 219.895 277.135 219.954 277.538 219.834C277.94 219.712 278.309 219.417 278.599 218.985C278.887 218.554 279.085 218.002 279.163 217.406C279.241 216.808 279.197 216.189 279.038 215.627C278.879 215.067 278.61 214.59 278.267 214.255C277.924 213.92 277.522 213.743 277.111 213.747C276.839 213.747 276.571 213.827 276.32 213.983C276.07 214.137 275.842 214.364 275.651 214.651C275.46 214.935 275.308 215.274 275.206 215.646C275.104 216.019 275.053 216.419 275.054 216.821Z" fill="black"/>
<path d="M271.123 244.743C272.231 244.733 273.309 244.19 274.191 243.194C275.074 242.2 275.716 240.806 276.018 239.225C276.057 239.036 276.068 238.836 276.053 238.638C276.037 238.44 275.996 238.251 275.93 238.078C275.865 237.903 275.777 237.752 275.672 237.63C275.567 237.505 275.446 237.415 275.317 237.362L267.451 234.097C267.326 234.019 267.194 233.979 267.059 233.979C266.924 233.979 266.791 234.019 266.667 234.097C266.437 234.303 266.267 234.632 266.194 235.017C266.012 235.973 265.961 236.973 266.041 237.958C266.12 238.945 266.332 239.897 266.66 240.764C266.989 241.63 267.431 242.39 267.958 243.002C268.486 243.613 269.09 244.065 269.736 244.331C270.182 244.566 270.649 244.705 271.123 244.743ZM273.636 239.783C273.373 240.343 273.028 240.806 272.624 241.137C272.275 241.436 271.887 241.627 271.485 241.697C271.085 241.768 270.677 241.718 270.29 241.55C269.885 241.4 269.506 241.131 269.175 240.756C268.843 240.381 268.567 239.91 268.364 239.371C268.137 238.787 268.008 238.133 267.989 237.459L273.636 239.783Z" fill="black"/>
<path d="M265.345 282.244C265.345 282.244 261.296 287.472 257.183 283.238C253.071 279.002 252.141 265.743 252.141 265.743L265.328 269.398L265.345 282.244Z" fill="black"/>
<path d="M77.0007 234.966C77.1357 234.964 77.2688 234.922 77.3927 234.842C77.5167 234.762 77.6291 234.648 77.7231 234.503C77.8171 234.36 77.8909 234.19 77.9406 234.004C77.9903 233.817 78.0149 233.619 78.0128 233.419C77.8658 221.322 80.2321 211.764 85.0468 204.699C94.2682 191.174 109.528 191.658 109.643 191.658C109.914 191.665 110.177 191.514 110.375 191.239C110.573 190.963 110.691 190.584 110.703 190.182C110.708 189.782 110.606 189.395 110.42 189.106C110.233 188.816 109.978 188.646 109.708 188.634C109.039 188.634 93.387 188.126 83.5944 202.546C78.3716 210.216 75.8093 220.619 75.9563 233.467C75.9562 233.667 75.9831 233.867 76.036 234.053C76.0888 234.238 76.1665 234.406 76.2639 234.545C76.3613 234.686 76.4768 234.796 76.6033 234.867C76.73 234.939 76.865 234.975 77.0007 234.966Z" fill="black"/>
<path d="M77.0009 191.658H77.213C77.4743 191.576 77.7036 191.345 77.8505 191.014C77.9972 190.683 78.0498 190.28 77.9967 189.892L70.3582 135.573C70.3302 135.38 70.277 135.196 70.2011 135.033C70.1254 134.869 70.0289 134.73 69.9167 134.622C69.8045 134.514 69.6791 134.44 69.5477 134.404C69.4162 134.368 69.2812 134.371 69.1504 134.412C69.0197 134.453 68.8959 134.532 68.7858 134.645C68.6756 134.757 68.5812 134.9 68.5085 135.067C68.4358 135.233 68.3861 135.419 68.3618 135.614C68.3375 135.808 68.3392 136.009 68.367 136.203L76.0052 190.496C76.0571 190.829 76.1844 191.125 76.3654 191.337C76.5464 191.548 76.7706 191.661 77.0009 191.658Z" fill="black"/>
<path d="M91.0361 187.569H91.1663C91.4339 187.515 91.6764 187.307 91.8413 186.99C92.0063 186.673 92.0803 186.273 92.0478 185.875L88.3592 144.743C88.3586 144.527 88.3272 144.314 88.2667 144.117C88.2062 143.92 88.1182 143.745 88.0086 143.603C87.8989 143.46 87.7698 143.354 87.6304 143.291C87.4909 143.228 87.344 143.21 87.1992 143.238C87.0547 143.265 86.9158 143.338 86.7917 143.452C86.6675 143.565 86.5613 143.716 86.4797 143.895C86.398 144.074 86.3428 144.277 86.3179 144.49C86.2931 144.703 86.299 144.921 86.3354 145.13L90.024 186.262C90.0592 186.624 90.1806 186.954 90.3662 187.194C90.552 187.434 90.7899 187.567 91.0361 187.569Z" fill="black"/>
<path d="M426.187 208.812C426.301 208.847 426.417 208.847 426.53 208.812L471.332 185.222C471.587 185.091 471.796 184.814 471.914 184.453C472.032 184.093 472.049 183.677 471.959 183.299C471.871 182.92 471.684 182.609 471.441 182.434C471.198 182.26 470.917 182.236 470.663 182.367L425.845 205.958C425.592 206.099 425.388 206.38 425.271 206.74C425.156 207.101 425.139 207.514 425.225 207.893C425.304 208.172 425.438 208.41 425.609 208.574C425.781 208.738 425.983 208.821 426.187 208.812Z" fill="black"/>
<path d="M426.432 199.086C426.632 199.083 426.825 198.99 426.987 198.82L462.584 164.172C462.694 164.064 462.791 163.925 462.866 163.762C462.942 163.599 462.994 163.416 463.023 163.222C463.05 163.029 463.051 162.83 463.025 162.636C463.001 162.442 462.95 162.257 462.878 162.091C462.727 161.756 462.494 161.521 462.227 161.44C461.962 161.358 461.685 161.436 461.458 161.656L425.911 196.304C425.69 196.529 425.539 196.872 425.487 197.261C425.435 197.649 425.487 198.052 425.632 198.384C425.717 198.589 425.834 198.76 425.974 198.882C426.114 199.004 426.271 199.074 426.432 199.086Z" fill="black"/>
<path d="M385.876 234.023C386.11 234.021 386.336 233.899 386.516 233.678C386.698 233.459 386.823 233.154 386.871 232.815C386.871 232.547 390.936 206.369 406.816 202.255C422.695 198.142 429.143 214.354 429.208 214.596C429.317 214.886 429.488 215.118 429.695 215.248C429.902 215.381 430.133 215.406 430.35 215.32C430.578 215.32 453.901 206.296 461.769 204.482C463.785 203.783 465.904 204.187 467.736 205.618C469.568 207.049 470.989 209.412 471.741 212.272C471.783 212.461 471.85 212.634 471.938 212.783C472.026 212.933 472.133 213.055 472.252 213.143C472.373 213.23 472.503 213.282 472.637 213.295C472.77 213.307 472.904 213.28 473.03 213.217C473.287 213.084 473.499 212.806 473.618 212.444C473.737 212.08 473.754 211.663 473.666 211.28C472.718 207.804 470.977 204.93 468.746 203.162C466.515 201.393 463.936 200.841 461.459 201.602C454.179 203.272 434.578 210.699 430.448 212.248C428.67 208.498 421.277 195.505 406.375 199.376C389.124 203.876 384.831 232.015 384.798 232.305C384.767 232.499 384.763 232.699 384.784 232.893C384.807 233.088 384.855 233.276 384.926 233.442C384.998 233.608 385.091 233.754 385.201 233.865C385.311 233.979 385.434 234.057 385.565 234.097L385.876 234.023Z" fill="black"/>
<path d="M351.978 115.83H455.632V215.926H351.978V115.83Z" fill="#FFBE4A"/>
<path d="M351.976 217.45H455.632C455.902 217.444 456.159 217.28 456.348 216.996C456.538 216.709 456.643 216.326 456.643 215.926V115.83C456.643 115.432 456.537 115.051 456.348 114.769C456.158 114.488 455.901 114.33 455.632 114.33H351.976C351.843 114.327 351.709 114.363 351.584 114.437C351.461 114.511 351.347 114.621 351.251 114.761C351.156 114.9 351.079 115.067 351.028 115.25C350.975 115.434 350.948 115.631 350.948 115.83V215.926C350.948 216.33 351.058 216.718 351.249 217.004C351.442 217.288 351.704 217.45 351.976 217.45ZM454.604 214.425H352.989V117.354H454.604V214.425Z" fill="black"/>
<path d="M351.976 141.743H455.632C455.902 141.737 456.159 141.573 456.348 141.288C456.538 141.003 456.643 140.619 456.643 140.219V115.83C456.643 115.432 456.537 115.051 456.348 114.769C456.158 114.488 455.901 114.33 455.632 114.33H351.976C351.843 114.327 351.709 114.363 351.584 114.437C351.461 114.511 351.347 114.621 351.251 114.761C351.156 114.9 351.079 115.067 351.028 115.25C350.975 115.434 350.948 115.631 350.948 115.83V140.17C350.944 140.375 350.968 140.578 351.018 140.769C351.067 140.959 351.143 141.133 351.238 141.28C351.334 141.426 351.448 141.543 351.576 141.623C351.702 141.702 351.839 141.743 351.976 141.743ZM454.604 138.719H352.989V117.354H454.604V138.719Z" fill="black"/>
<path d="M403.828 217.451C404.1 217.451 404.363 217.291 404.555 217.004C404.748 216.718 404.856 216.331 404.856 215.926V116.967C404.874 116.753 404.862 116.535 404.819 116.328C404.776 116.121 404.704 115.93 404.607 115.768C404.511 115.606 404.393 115.476 404.259 115.387C404.126 115.298 403.983 115.251 403.836 115.251C403.69 115.251 403.547 115.298 403.413 115.387C403.28 115.476 403.162 115.606 403.065 115.768C402.969 115.93 402.896 116.121 402.853 116.328C402.811 116.535 402.798 116.753 402.817 116.967V215.926C402.817 216.326 402.922 216.71 403.112 216.996C403.301 217.28 403.558 217.444 403.828 217.451Z" fill="black"/>
<path d="M403.828 117.088C403.958 117.123 404.09 117.123 404.22 117.088C405.428 116.338 434.005 98.9661 435.573 81.6907C435.965 77.1905 434.61 73.1499 431.509 69.5932C430.206 67.8907 428.627 66.7227 426.926 66.2048C425.226 65.6871 423.464 65.8375 421.813 66.6412C410.031 72.7869 403.126 113.532 402.832 115.274C402.791 115.544 402.799 115.826 402.858 116.09C402.915 116.354 403.02 116.59 403.159 116.774C403.351 116.992 403.588 117.103 403.828 117.088ZM424.865 68.6979C426.851 68.8221 428.751 69.9198 430.269 71.8191C432.781 74.6741 433.842 77.6985 433.532 81.0859C432.341 94.248 411.793 108.62 405.346 112.83C407.173 103.321 413.506 74.1177 422.467 69.2787C423.232 68.9311 424.033 68.7758 424.834 68.8189L424.865 68.6979Z" fill="black"/>
<path d="M400.564 117.354C400.834 117.347 401.093 117.182 401.281 116.895C401.378 116.757 401.456 116.592 401.509 116.409C401.561 116.226 401.588 116.029 401.588 115.83C401.588 115.631 401.561 115.435 401.509 115.252C401.456 115.069 401.378 114.903 401.281 114.766C394.753 105.087 378.155 76.9243 380.392 64.8751C380.7 63.4909 381.263 62.2626 382.02 61.3302C382.776 60.3978 383.693 59.7986 384.667 59.6005C385.89 59.07 387.183 58.9797 388.434 59.3374C389.686 59.6951 390.862 60.4902 391.865 61.6572C401.658 72.666 402.734 115.201 402.751 115.637C402.783 116.005 402.903 116.343 403.091 116.589C403.28 116.834 403.521 116.969 403.771 116.969C404.021 116.969 404.264 116.834 404.451 116.589C404.639 116.343 404.759 116.005 404.791 115.637C404.791 113.822 403.747 71.2142 393.104 59.3344C391.855 57.8967 390.393 56.9155 388.84 56.4698C387.286 56.0243 385.683 56.1271 384.16 56.7698C382.836 57.0885 381.597 57.9508 380.585 59.2593C379.572 60.5677 378.827 62.27 378.432 64.1736C375.413 80.3843 398.85 115.516 399.846 116.991C400.045 117.244 400.302 117.374 400.564 117.354Z" fill="black"/>
</g>
<defs>
<clipPath id="clip0_14_129">
<rect width="480" height="600" fill="white"/>
</clipPath>
</defs>
</svg>
