<svg width="312" height="80" viewBox="0 0 312 80" fill="none" xmlns="http://www.w3.org/2000/svg">
<path d="M81.3846 62L83.1724 54.4396H94.1039L95.833 62H108.963L96.9466 22H79.2222L69.2222 62H81.3846ZM89.0338 32.1685L92.1403 45.7949H85.1945L88.4183 32.1685H89.0338Z" fill="#FFFFFF"/>
<path d="M124.642 62V48.1978H139.207V38.9377H124.642V31.6117H140.761V22H112.333V62H124.642Z" fill="#FFFFFF"/>
<path d="M157.759 62V48.1978H172.324V38.9377H157.759V31.6117H173.877V22H145.45V62H157.759Z" fill="#FFFFFF"/>
<path d="M196.913 22H178.567V62H190.612V48.6667H193.689L200.107 62H213.618L205.763 47.1136C208.02 46.0879 212.768 42.3956 212.768 35.7729C212.768 27.5092 207.375 22 196.913 22ZM190.612 40.4615V30.8205H195.037C197.616 30.8205 200.078 32.4322 200.078 35.7143C200.078 38.967 197.733 40.4615 195.037 40.4615H190.612Z" fill="#FFFFFF"/>
<path d="M244.654 51.9194H229.971V22H217.662V62H244.654V51.9194Z" fill="#FFFFFF"/>
<path d="M276.188 51.9194H261.505V22H249.196V62H276.188V51.9194Z" fill="#FFFFFF"/>
<path d="M298.051 62V49.5751L311.444 22H298.608L292.336 37.7363H291.897L285.684 22H272.349L285.742 49.956V62H298.051Z" fill="#FFFFFF"/>
<mask id="mask0_58_573" style="mask-type:luminance" maskUnits="userSpaceOnUse" x="17" y="22" width="26" height="40">
<path d="M17 22H42.8139V62H17V22Z" fill="white"/>
</mask>
<g mask="url(#mask0_58_573)">
<path d="M32.259 21.9972H17.0082L27.557 62.0007H42.8077L32.259 21.9972Z" fill="#CF1E30"/>
</g>
<mask id="mask1_58_573" style="mask-type:luminance" maskUnits="userSpaceOnUse" x="38" y="22" width="27" height="40">
<path d="M38.9581 22H64.8972V62H38.9581V22Z" fill="white"/>
</mask>
<g mask="url(#mask1_58_573)">
<path d="M54.2957 21.9972H39.0443L49.5937 62.0007H64.8452L54.2957 21.9972Z" fill="#CF1E30"/>
</g>
<mask id="mask2_58_573" style="mask-type:luminance" maskUnits="userSpaceOnUse" x="27" y="22" width="27" height="40">
<path d="M27.9164 22H53.8555V62H27.9164V22Z" fill="white"/>
</mask>
<g mask="url(#mask2_58_573)">
<g filter="url(#filter0_dd_58_573)">
<path d="M43.2925 62.0007H28.041L38.5904 21.9972H53.8412L43.2925 62.0007Z" fill="#DF2334"/>
</g>
</g>
<mask id="mask3_58_573" style="mask-type:luminance" maskUnits="userSpaceOnUse" x="49" y="22" width="27" height="40">
<path d="M49.9997 22H75.8889V62H49.9997V22Z" fill="white"/>
</mask>
<g mask="url(#mask3_58_573)">
<g filter="url(#filter1_d_58_573)">
<path d="M65.3292 62.0007H50.0778L60.6272 21.9972H75.8779L65.3292 62.0007Z" fill="#DF2334"/>
</g>
</g>
<defs>
<filter id="filter0_dd_58_573" x="8.04102" y="10.9972" width="55.8002" height="70.0034" filterUnits="userSpaceOnUse" color-interpolation-filters="sRGB">
<feFlood flood-opacity="0" result="BackgroundImageFix"/>
<feColorMatrix in="SourceAlpha" type="matrix" values="0 0 0 0 0 0 0 0 0 0 0 0 0 0 0 0 0 0 127 0" result="hardAlpha"/>
<feOffset dx="-5" dy="4"/>
<feGaussianBlur stdDeviation="7.5"/>
<feComposite in2="hardAlpha" operator="out"/>
<feColorMatrix type="matrix" values="0 0 0 0 0.0823529 0 0 0 0 0.121569 0 0 0 0 0.156863 0 0 0 0.1 0"/>
<feBlend mode="normal" in2="BackgroundImageFix" result="effect1_dropShadow_58_573"/>
<feColorMatrix in="SourceAlpha" type="matrix" values="0 0 0 0 0 0 0 0 0 0 0 0 0 0 0 0 0 0 127 0" result="hardAlpha"/>
<feOffset dy="4"/>
<feGaussianBlur stdDeviation="2"/>
<feComposite in2="hardAlpha" operator="out"/>
<feColorMatrix type="matrix" values="0 0 0 0 0.0823529 0 0 0 0 0.121569 0 0 0 0 0.156863 0 0 0 0.1 0"/>
<feBlend mode="normal" in2="effect1_dropShadow_58_573" result="effect2_dropShadow_58_573"/>
<feBlend mode="normal" in="SourceGraphic" in2="effect2_dropShadow_58_573" result="shape"/>
</filter>
<filter id="filter1_d_58_573" x="40.0778" y="15.9972" width="45.8002" height="60.0034" filterUnits="userSpaceOnUse" color-interpolation-filters="sRGB">
<feFlood flood-opacity="0" result="BackgroundImageFix"/>
<feColorMatrix in="SourceAlpha" type="matrix" values="0 0 0 0 0 0 0 0 0 0 0 0 0 0 0 0 0 0 127 0" result="hardAlpha"/>
<feOffset dy="4"/>
<feGaussianBlur stdDeviation="5"/>
<feComposite in2="hardAlpha" operator="out"/>
<feColorMatrix type="matrix" values="0 0 0 0 0.0823529 0 0 0 0 0.121569 0 0 0 0 0.156863 0 0 0 0.1 0"/>
<feBlend mode="normal" in2="BackgroundImageFix" result="effect1_dropShadow_58_573"/>
<feBlend mode="normal" in="SourceGraphic" in2="effect1_dropShadow_58_573" result="shape"/>
</filter>
</defs>
</svg>
