<svg width="150" height="24" viewBox="0 0 150 24" fill="none" xmlns="http://www.w3.org/2000/svg">
<path d="M24 2.4V6C24 6.63652 23.7471 7.24697 23.2971 7.69706C22.847 8.14714 22.2365 8.4 21.6 8.4H15.6C14.9635 8.4 14.353 8.14714 13.9029 7.69706C13.4529 7.24697 13.2 6.63652 13.2 6V2.4C13.2 1.76348 13.4529 1.15303 13.9029 0.702944C14.353 0.252856 14.9635 0 15.6 0H21.6C22.2365 0 22.847 0.252856 23.2971 0.702944C23.7471 1.15303 24 1.76348 24 2.4ZM8.4 15.6H2.4C1.76348 15.6 1.15303 15.8529 0.702944 16.3029C0.252856 16.753 0 17.3635 0 18V21.6C0 22.2365 0.252856 22.847 0.702944 23.2971C1.15303 23.7471 1.76348 24 2.4 24H8.4C9.03652 24 9.64697 23.7471 10.0971 23.2971C10.5471 22.847 10.8 22.2365 10.8 21.6V18C10.8 17.3635 10.5471 16.753 10.0971 16.3029C9.64697 15.8529 9.03652 15.6 8.4 15.6Z" fill="#3A8EBD"/>
<path d="M10.8 2.4V10.8C10.8 11.4365 10.5471 12.047 10.0971 12.4971C9.64697 12.9471 9.03652 13.2 8.4 13.2H2.4C1.76348 13.2 1.15303 12.9471 0.702944 12.4971C0.252856 12.047 0 11.4365 0 10.8V2.4C0 1.76348 0.252856 1.15303 0.702944 0.702944C1.15303 0.252856 1.76348 0 2.4 0H8.4C9.03652 0 9.64697 0.252856 10.0971 0.702944C10.5471 1.15303 10.8 1.76348 10.8 2.4ZM21.6 10.8H15.6C14.9635 10.8 14.353 11.0529 13.9029 11.5029C13.4529 11.953 13.2 12.5635 13.2 13.2V21.6C13.2 22.2365 13.4529 22.847 13.9029 23.2971C14.353 23.7471 14.9635 24 15.6 24H21.6C22.2365 24 22.847 23.7471 23.2971 23.2971C23.7471 22.847 24 22.2365 24 21.6V13.2C24 12.5635 23.7471 11.953 23.2971 11.5029C22.847 11.0529 22.2365 10.8 21.6 10.8Z" fill="#BDE6FF"/>
<path d="M30 23.4286V0.571429H34.1458L33.8812 7.69231H34.631C35.0426 5.93407 35.5866 4.49817 36.2629 3.38462C36.9685 2.24176 37.8506 1.39194 38.9091 0.835167C39.997 0.278389 41.2614 0 42.7021 0C45.2602 0 47.2008 0.908425 48.5239 2.72528C49.8765 4.54213 50.5527 7.31136 50.5527 11.033V23.4286H45.7012V11.5165C45.7012 8.96703 45.319 7.10623 44.5545 5.93407C43.79 4.7326 42.6433 4.13187 41.1144 4.13187C39.7912 4.13187 38.6592 4.55678 37.7183 5.40659C36.8068 6.22711 36.1011 7.31136 35.6013 8.65934C35.1014 10.0073 34.8221 11.4725 34.7633 13.0549V23.4286H30Z" fill="#A6CEE4"/>
<path d="M66.9331 24C65.1101 24 63.493 23.7363 62.0816 23.2088C60.6703 22.652 59.4794 21.8755 58.5091 20.8791C57.5388 19.8535 56.8038 18.6374 56.3039 17.2308C55.8041 15.7949 55.5541 14.1832 55.5541 12.3956C55.5541 10.6081 55.8041 8.96703 56.3039 7.47253C56.8038 5.94872 57.5094 4.63004 58.4209 3.51649C59.3618 2.40293 60.5085 1.53846 61.8611 0.923078C63.243 0.307693 64.8014 0 66.5362 0C68.1533 0 69.5941 0.263736 70.8584 0.791209C72.1522 1.31868 73.2401 2.12454 74.1222 3.20879C75.0043 4.26374 75.6658 5.59707 76.1069 7.20879C76.5479 8.79121 76.7096 10.652 76.592 12.7912L58.6415 12.9231V9.93407L73.7693 9.8022L72.0934 11.6484C72.2698 9.89011 72.1228 8.43956 71.6523 7.2967C71.1819 6.15385 70.5056 5.30403 69.6235 4.74725C68.7414 4.19048 67.727 3.91209 66.5803 3.91209C65.2865 3.91209 64.1545 4.24908 63.1842 4.92308C62.2433 5.56777 61.5083 6.52015 60.979 7.78022C60.4497 9.04029 60.1851 10.5495 60.1851 12.3077C60.1851 14.9451 60.7732 16.9377 61.9493 18.2857C63.1254 19.6044 64.8014 20.2637 66.9772 20.2637C67.8887 20.2637 68.6679 20.1612 69.3148 19.956C69.9616 19.7216 70.5056 19.4286 70.9466 19.0769C71.3877 18.696 71.7405 18.2564 72.0051 17.7582C72.2992 17.2308 72.5344 16.6886 72.7108 16.1319L76.9008 17.0989C76.6361 18.1832 76.2245 19.1502 75.6658 20C75.1366 20.8205 74.4603 21.5385 73.637 22.1538C72.8137 22.7399 71.8434 23.1941 70.7261 23.5165C69.6382 23.8388 68.3739 24 66.9331 24Z" fill="#A6CEE4"/>
<path d="M79.0881 23.4286L86.7623 12L79.044 0.571429H84.6011L89.585 9.58242H90.2465L95.1421 0.571429H100.743L93.0251 12L100.876 23.4286H95.2745L90.2024 14.3736H89.585L84.6453 23.4286H79.0881Z" fill="#A6CEE4"/>
<path d="M112.527 24C109.94 24 107.985 23.1209 106.661 21.3626C105.338 19.5751 104.677 16.8938 104.677 13.3187V0.571429H109.484V12.7912C109.484 15.1941 109.852 16.9817 110.587 18.1538C111.322 19.326 112.483 19.9121 114.071 19.9121C114.953 19.9121 115.732 19.6923 116.408 19.2527C117.085 18.8132 117.673 18.1978 118.173 17.4066C118.702 16.6154 119.114 15.6923 119.408 14.6374C119.731 13.5531 119.952 12.3663 120.069 11.0769V0.571429H124.832V23.4286H120.775L120.995 16.1758H120.246C119.863 17.9927 119.319 19.4872 118.614 20.6593C117.937 21.8022 117.085 22.652 116.056 23.2088C115.056 23.7363 113.88 24 112.527 24Z" fill="#A6CEE4"/>
<path d="M140.165 24C138.577 24 137.166 23.8388 135.931 23.5165C134.696 23.1941 133.637 22.7399 132.755 22.1538C131.902 21.5385 131.241 20.8059 130.77 19.956C130.3 19.1062 130.021 18.1832 129.932 17.1868L133.814 15.9121C133.814 16.7619 134.078 17.5238 134.607 18.1978C135.137 18.8718 135.887 19.3993 136.857 19.7802C137.857 20.1319 139.047 20.3077 140.429 20.3077C142.046 20.3077 143.296 20.044 144.178 19.5165C145.06 18.989 145.501 18.2564 145.501 17.3187C145.501 16.6154 145.251 16.0586 144.752 15.6484C144.281 15.2381 143.59 14.9011 142.679 14.6374C141.797 14.3736 140.753 14.1245 139.547 13.8901C138.459 13.6557 137.371 13.3919 136.283 13.0989C135.225 12.7766 134.24 12.3663 133.328 11.8681C132.446 11.37 131.726 10.7253 131.167 9.93407C130.638 9.11355 130.373 8.08791 130.373 6.85714C130.373 5.45055 130.741 4.24909 131.476 3.25275C132.211 2.22711 133.27 1.4359 134.652 0.879123C136.063 0.293041 137.739 0 139.68 0C141.561 0 143.178 0.278389 144.531 0.835167C145.913 1.39194 147.016 2.1685 147.839 3.16484C148.662 4.16117 149.162 5.33333 149.338 6.68132L145.281 7.86813C145.222 6.95971 144.943 6.1978 144.443 5.58242C143.972 4.96703 143.325 4.51282 142.502 4.21978C141.679 3.89744 140.709 3.73627 139.591 3.73627C138.121 3.73627 136.96 4 136.107 4.52747C135.284 5.05495 134.872 5.77289 134.872 6.68132C134.872 7.38462 135.122 7.95604 135.622 8.39561C136.151 8.80586 136.857 9.14286 137.739 9.40659C138.65 9.64103 139.68 9.87546 140.826 10.1099C142.002 10.3443 143.134 10.6081 144.222 10.9011C145.31 11.1941 146.28 11.5897 147.133 12.0879C148.015 12.5568 148.706 13.2015 149.206 14.022C149.735 14.8132 150 15.8242 150 17.0549C150 18.5495 149.588 19.8242 148.765 20.8791C147.971 21.9048 146.839 22.6813 145.369 23.2088C143.899 23.7363 142.164 24 140.165 24Z" fill="#A6CEE4"/>
</svg>
